<svg xmlns="http://www.w3.org/2000/svg" viewBox="0 0 155.07 51.59"><defs><style>.cls-1{fill:#90be5b;}.cls-2{fill:#442d2c;}</style></defs><title>logo_header@1x</title><g id="Слой_2" data-name="Слой 2"><g id="Layer_1" data-name="Layer 1"><path class="cls-1" d="M76.65,48.07a10.2,10.2,0,0,0,7.21-2.89l1.44,1.73a11.93,11.93,0,0,1-4,2.42,13.89,13.89,0,0,1-5,.89,16.14,16.14,0,0,1-4.89-.69,10.33,10.33,0,0,1-3.72-2.05,9,9,0,0,1-2.38-3.34,11.74,11.74,0,0,1-.84-4.59A12,12,0,0,1,65.35,35a9,9,0,0,1,2.34-3.35,10.1,10.1,0,0,1,3.65-2.05,15.31,15.31,0,0,1,4.73-.69,13.68,13.68,0,0,1,5,.9,11.93,11.93,0,0,1,4,2.42l-1.44,1.73A10.2,10.2,0,0,0,76.36,31a8.39,8.39,0,0,0-2.91.5,6,6,0,0,0-2.34,1.55,7.11,7.11,0,0,0-1.54,2.64A11.38,11.38,0,0,0,69,39.55a11.38,11.38,0,0,0,.57,3.82A7,7,0,0,0,71.15,46a6.5,6.5,0,0,0,2.43,1.54A8.87,8.87,0,0,0,76.65,48.07Z"/><path class="cls-1" d="M98.28,48.16a7.85,7.85,0,0,0,2.55-.38,4.93,4.93,0,0,0,2-1.22,5.32,5.32,0,0,0,1.25-2.1,9.35,9.35,0,0,0,.45-3.08v-12h4.19v12c0,2.95-.91,5.16-2.72,6.61s-4.36,2.18-7.67,2.18-5.89-.73-7.69-2.18-2.69-3.66-2.69-6.61v-12h4.18v12a9.35,9.35,0,0,0,.45,3.08,5.32,5.32,0,0,0,1.25,2.1,4.93,4.93,0,0,0,2,1.22A7.85,7.85,0,0,0,98.28,48.16Z"/><path class="cls-1" d="M123.09,29.43a14.41,14.41,0,0,1,3.88.48,8.58,8.58,0,0,1,2.9,1.38,6.28,6.28,0,0,1,1.82,2.22,7.39,7.39,0,0,1,0,6,6.19,6.19,0,0,1-1.82,2.22,8.4,8.4,0,0,1-2.9,1.38,14.41,14.41,0,0,1-3.88.48h-6.2v6.06H112.7V29.43Zm-6.2,2.16V41.4h6.2a4.88,4.88,0,0,0,3.53-1.19,4.91,4.91,0,0,0,1.26-3.71,4.9,4.9,0,0,0-1.26-3.71,4.89,4.89,0,0,0-3.53-1.2Z"/><path class="cls-1" d="M154.24,44.3a5.26,5.26,0,0,1-.52,2.33A4.82,4.82,0,0,1,152,48.5a9.4,9.4,0,0,1-3,1.26,19.85,19.85,0,0,1-4.58.46,19.44,19.44,0,0,1-3-.23,16.74,16.74,0,0,1-2.77-.66,13.68,13.68,0,0,1-2.42-1,9.52,9.52,0,0,1-1.92-1.37l1.44-1.73a11.36,11.36,0,0,0,3.84,2.15,15,15,0,0,0,4.81.74,7.77,7.77,0,0,0,4.13-.81A2.53,2.53,0,0,0,149.77,45a2.28,2.28,0,0,0-1-1.85,10.74,10.74,0,0,0-3.23-1.47L140.11,40a10.43,10.43,0,0,1-4.1-2.21,4.56,4.56,0,0,1-1.39-3.42,4.61,4.61,0,0,1,.51-2.06,5,5,0,0,1,1.57-1.76,8.42,8.42,0,0,1,2.73-1.21,15.34,15.34,0,0,1,4-.45,17.11,17.11,0,0,1,5.5.9,13.94,13.94,0,0,1,2.39,1,9.81,9.81,0,0,1,1.92,1.37l-1.44,1.73a12,12,0,0,0-3.69-2.16,13.85,13.85,0,0,0-4.68-.73,5.7,5.7,0,0,0-3.24.75,2.19,2.19,0,0,0-1.08,1.84,2.55,2.55,0,0,0,.2,1,2.28,2.28,0,0,0,.68.84,5,5,0,0,0,1.25.72c.52.23,1.16.46,1.93.71l5.45,1.73a11,11,0,0,1,4.13,2.2A4.4,4.4,0,0,1,154.24,44.3Z"/><path class="cls-1" d="M96.05,12.17A4,4,0,0,0,95,9.07a4.08,4.08,0,0,0-2.84-1,8.66,8.66,0,0,0-4.81,1.48l-1-1.76A8.21,8.21,0,0,1,87.7,7a12.89,12.89,0,0,1,1.59-.53,13.34,13.34,0,0,1,1.62-.34,10,10,0,0,1,1.5-.11,11.3,11.3,0,0,1,3.29.44,6.85,6.85,0,0,1,2.42,1.25,5.32,5.32,0,0,1,1.5,1.94,5.93,5.93,0,0,1,.51,2.49v9.62H92q-4,0-5.84-1.2A4,4,0,0,1,84.25,17a4,4,0,0,1,1.88-3.61Q88,12.17,92,12.17ZM88.62,17c0,1.85,1.11,2.78,3.35,2.78h4.08V14.2H92C89.73,14.2,88.62,15.12,88.62,17Z"/><path class="cls-1" d="M111.79,6.65a12,12,0,0,1,3.66.53,8.06,8.06,0,0,1,2.81,1.51,6.58,6.58,0,0,1,1.79,2.39,7.56,7.56,0,0,1,.63,3.14,7.56,7.56,0,0,1-.63,3.14,6.58,6.58,0,0,1-1.79,2.39,8.06,8.06,0,0,1-2.81,1.51,12,12,0,0,1-3.66.53h-3.65V27h-4.07V6.65Zm-3.65,2V19.76h3.65a5.08,5.08,0,0,0,1.82-.31,3.57,3.57,0,0,0,1.43-1,4.64,4.64,0,0,0,.93-1.72,8.53,8.53,0,0,0,.34-2.54,8.53,8.53,0,0,0-.34-2.54A4.64,4.64,0,0,0,115,10a3.57,3.57,0,0,0-1.43-1,5.08,5.08,0,0,0-1.82-.31Z"/><path class="cls-1" d="M73.41,6.65a12,12,0,0,1,3.66.53,8.15,8.15,0,0,1,2.81,1.51,6.81,6.81,0,0,1,1.79,2.39,7.56,7.56,0,0,1,.63,3.14,7.56,7.56,0,0,1-.63,3.14,6.81,6.81,0,0,1-1.79,2.39,8.15,8.15,0,0,1-2.81,1.51,12,12,0,0,1-3.66.53H69.76V27H65.68V6.65Zm-3.65,2V19.76h3.65a5.08,5.08,0,0,0,1.82-.31,3.57,3.57,0,0,0,1.43-1,4.94,4.94,0,0,0,.93-1.72,8.56,8.56,0,0,0,.33-2.54,8.56,8.56,0,0,0-.33-2.54A4.94,4.94,0,0,0,76.66,10a3.57,3.57,0,0,0-1.43-1,5.08,5.08,0,0,0-1.82-.31Z"/><path class="cls-1" d="M132.78,20.37a7.11,7.11,0,0,0,2.66-.5,10,10,0,0,0,2.43-1.4L139,20.22a6.77,6.77,0,0,1-1.3.9,8.85,8.85,0,0,1-1.6.68,12.64,12.64,0,0,1-1.79.43,10.73,10.73,0,0,1-1.87.16,12.77,12.77,0,0,1-3.77-.53,8.27,8.27,0,0,1-2.9-1.58A6.88,6.88,0,0,1,124,17.73a8.67,8.67,0,0,1-.66-3.5,9.11,9.11,0,0,1,.63-3.48,7.07,7.07,0,0,1,1.75-2.56,7.53,7.53,0,0,1,2.66-1.57,10.35,10.35,0,0,1,3.42-.54,10.17,10.17,0,0,1,3.29.52,7.78,7.78,0,0,1,2.68,1.53,7.29,7.29,0,0,1,1.81,2.42,7.61,7.61,0,0,1,.67,3.23v2H127.76a5.17,5.17,0,0,0,1.68,3.5A5.14,5.14,0,0,0,132.78,20.37Zm-1-12.4a4,4,0,0,0-1.58.32,3.32,3.32,0,0,0-1.27,1,5.59,5.59,0,0,0-.87,1.8,9.73,9.73,0,0,0-.37,2.68h8.17a8.51,8.51,0,0,0-.36-2.62,5.54,5.54,0,0,0-.91-1.82A3.61,3.61,0,0,0,131.76,8Z"/><path class="cls-1" d="M155.07,8.68h-3.5a4.11,4.11,0,0,0-3,1.06,4.34,4.34,0,0,0-1,3.16v8.89h-4.08V12.91a5.81,5.81,0,0,1,1.88-4.61,8,8,0,0,1,5.41-1.65h4.37Z"/><path class="cls-2" d="M20.42,32.25C9.75,33,3.67,37.76,3.6,41.16c-.08,4.23,12.11,8.27,26.78,8.57s33.07-3.46,24.88-12c2.12,1.41,3.3,3,3.27,4.64-.11,5.42-13.31,9.54-29.47,9.21C14.59,51.28-.12,47.09,0,41.16.09,36.8,8.66,33.28,20.42,32.25Z"/><path class="cls-2" d="M42,10.64C52,10.59,56,8.12,57.51,7.28v0c0-.11,0-.23,0-.32a7,7,0,0,1-2.17.77c-3,1-7.83,1.49-13.34,1.49-9,0-15.48-1.61-15.48-4.21S33,1,42,1c8.1,0,14.81,1.36,16.12,3.52-.81-2.38-8-4.5-16.8-4.53s-16.86,2-17,5c0,.76.37,1.18.92,1.69C26.14,13,30,41.88,30,41.88c2.65,3.54,11.33,3.49,11.33,3.49s8.68.05,11.33-3.49c0,0,1.54-11.28,3-21.49-1.46,10.07-3.12,16.17-4.14,20.83-2.83,2.39-9.55,2.17-9.64,2.17s-7.23.16-9.79-2.4c-.26-2.2-3-24.54-4.05-32.12,2.32.76,4.26,1.6,13.72,1.76Z"/><path class="cls-2" d="M38.84,2.45c-3.41.12-5.28,1.13-5.15,1.91.18,1,3.87,1.89,8.56,2.07C46.34,6.59,52.58,6.05,50,4c.67.34,1.05.73,1,1.12,0,1.29-4.27,2.2-9.44,2s-9.32-1.36-9.28-2.65C32.33,3.42,35.07,2.63,38.84,2.45Z"/><path class="cls-2" d="M47.84,7.9s17-2,1.84-6C49.68,1.91,63.14,5.39,47.84,7.9Z"/></g></g></svg>